<svg width="25" height="24" viewBox="0 0 25 24" fill="none" xmlns="http://www.w3.org/2000/svg">
<path d="M17.1999 18.98H7.79996C7.37996 18.98 6.90996 18.65 6.76996 18.25L2.62995 6.66999C2.03996 5.00999 2.72996 4.49999 4.14996 5.51999L8.04996 8.30998C8.69996 8.75998 9.43996 8.52999 9.71996 7.79999L11.4799 3.10999C12.0399 1.60999 12.9699 1.60999 13.5299 3.10999L15.2899 7.79999C15.5699 8.52999 16.3099 8.75998 16.9499 8.30998L20.6099 5.69998C22.1699 4.57998 22.9199 5.14999 22.2799 6.95999L18.2399 18.27C18.0899 18.65 17.6199 18.98 17.1999 18.98Z" stroke="white" stroke-linecap="round" stroke-linejoin="round"/>
<path d="M6.99994 22H17.9999" stroke="white" stroke-linecap="round" stroke-linejoin="round"/>
<path d="M9.99994 14H14.9999" stroke="white" stroke-linecap="round" stroke-linejoin="round"/>
</svg>
