<svg width="24" height="24" viewBox="1 -1 24 24" fill="none" xmlns="http://www.w3.org/2000/svg">
<g filter="url(#filter0_d_1667_11198)">
<path d="M16.5419 5.35185H9.56544C8.83632 5.35185 8.17319 5.07118 7.83481 4.5757C7.74958 4.45093 7.78164 4.29423 7.90642 4.20906C8.03127 4.12377 8.20145 4.13917 8.28662 4.26395C8.52093 4.60701 9.0229 4.81191 9.56546 4.81191H16.5419C17.0845 4.81191 17.5865 4.61377 17.8208 4.27073C17.9059 4.14603 18.0761 4.12559 18.201 4.21088C18.3257 4.29605 18.3578 4.44505 18.2726 4.56984C17.9342 5.0653 17.2711 5.35185 16.5419 5.35185ZM15.608 11.0912H16.6679V11.6511H15.608V11.0912Z" fill="#518F9C"/>
<path d="M14.9083 7.53863C14.9083 7.23643 14.6633 6.99146 14.3611 6.99146H11.076C10.7738 6.99146 10.5288 7.23643 10.5288 7.53863V9.98388C10.5288 10.2861 10.7738 10.5311 11.076 10.5311H14.3611C14.6633 10.5311 14.9083 10.2861 14.9083 9.98388V7.53863ZM11.0687 9.99112V7.55139H14.4218L14.4222 9.99112H11.0687ZM9.36046 6.99146H7.65054C6.78309 6.99146 6.0293 7.75307 6.0293 8.62051V10.0569C6.0293 10.3586 6.32286 10.5511 6.62457 10.5511H9.36044C9.66215 10.5511 9.82887 10.3586 9.82887 10.0569V7.59457C9.82887 7.29286 9.66217 6.99146 9.36046 6.99146ZM9.26893 9.99112H6.56924V8.62051C6.56924 8.05478 7.08478 7.55139 7.65054 7.55139H9.26893V9.99112ZM17.4313 6.99146H16.2001C15.8984 6.99146 15.6082 7.29286 15.6082 7.59457V10.0569C15.6082 10.3586 15.8984 10.5511 16.2001 10.5511H19.4832C19.7849 10.5511 19.9477 10.3586 19.9477 10.0569V9.64648C19.9477 8.21334 18.8644 6.99146 17.4313 6.99146ZM16.1082 7.55139H16.6681V9.99112H16.1082V7.55139ZM19.4878 10.3304V10.0711H19.4832L19.4878 10.3304ZM19.4824 9.99112H17.208V7.55139H17.4313C18.5627 7.55139 19.4832 8.46059 19.4832 9.59202L19.4824 9.99112ZM11.0687 12.8908H14.9083V13.4307H11.0687V12.8908Z" fill="#518F9C"/>
<path d="M21.2085 12.9296V12.6081C21.6085 12.4951 21.7557 12.1918 21.7557 11.8352C21.7557 11.4787 21.6085 11.1754 21.2085 11.0624V9.64653C21.2085 7.5345 19.5443 5.75166 17.4322 5.75166H16.0091V4.81177H14.6093V5.75166H10.9297V4.81177H9.56985V5.75166H7.85668C6.19725 5.75166 4.79041 7.16634 4.79041 8.82578V12.9296C4.49044 12.9296 4.23047 13.175 4.23047 13.4768V14.024C4.23047 14.3257 4.54551 14.5307 4.84724 14.5307H7.19746C7.32832 15.3306 8.00255 15.8986 8.81428 15.8986C9.626 15.8986 10.3002 15.3306 10.4311 14.5307H15.6787C15.8096 15.3306 16.4838 15.8986 17.2955 15.8986C18.1072 15.8986 18.7814 15.3306 18.9123 14.5307H21.2625C21.5642 14.5307 21.7486 14.3257 21.7486 14.024V13.4768C21.7485 13.175 21.6085 12.9296 21.2085 12.9296ZM15.1692 5.35169H15.4492V5.75164H15.1692V5.35169ZM10.1298 5.35169H10.3698V5.75164H10.1298V5.35169ZM8.81424 15.3919C8.21082 15.3919 7.71988 14.9009 7.71988 14.2975C7.71988 13.6941 8.2108 13.2031 8.81424 13.2031C9.41767 13.2031 9.90859 13.6941 9.90859 14.2975C9.90859 14.9009 9.41765 15.3919 8.81424 15.3919ZM17.2954 15.3919C16.692 15.3919 16.2011 14.9009 16.2011 14.2975C16.2011 13.6941 16.692 13.2031 17.2954 13.2031C17.8989 13.2031 18.3898 13.6941 18.3898 14.2975C18.3898 14.9009 17.8989 15.3919 17.2954 15.3919ZM18.9122 13.9907C18.7814 13.2908 18.1072 12.6228 17.2954 12.6228C16.4837 12.6228 15.8095 13.2908 15.6786 13.9907H10.431C10.3002 13.2908 9.62594 12.6228 8.81422 12.6228C8.00249 12.6228 7.32828 13.2908 7.1974 13.9907H5.87025V13.4767C5.87025 13.175 5.73026 12.9296 5.33031 12.9296V8.82576C5.33031 7.46805 6.49893 6.31158 7.85664 6.31158H17.4322C19.2424 6.31158 20.6486 7.83627 20.6486 9.64651V12.9296C20.3686 12.9296 20.1087 13.175 20.1087 13.4767V13.9907H18.9122Z" fill="#518F9C"/>
</g>
<defs>
<filter id="filter0_d_1667_11198" x="-1" y="0" width="28" height="28" filterUnits="userSpaceOnUse" color-interpolation-filters="sRGB">
<feFlood flood-opacity="0" result="BackgroundImageFix"/>
<feColorMatrix in="SourceAlpha" type="matrix" values="0 0 0 0 0 0 0 0 0 0 0 0 0 0 0 0 0 0 127 0" result="hardAlpha"/>
<feOffset dy="4"/>
<feGaussianBlur stdDeviation="2"/>
<feComposite in2="hardAlpha" operator="out"/>
<feColorMatrix type="matrix" values="0 0 0 0 0 0 0 0 0 0 0 0 0 0 0 0 0 0 0.25 0"/>
<feBlend mode="normal" in2="BackgroundImageFix" result="effect1_dropShadow_1667_11198"/>
<feBlend mode="normal" in="SourceGraphic" in2="effect1_dropShadow_1667_11198" result="shape"/>
</filter>
</defs>
</svg>
